# xmcd
#
# Track frame offsets:
#	150
#	12552
#	25896
#	40650
#	52204
#	66101
#	76763
#	86303
#	102180
#	117033
#	127632
#	140651
#
# Disc length: 2021 seconds
#
# Revision: 0
# Processed by: cddbd v1.5.2PL0 Copyright (c) Steve Scherf et al.
# Submitted via: EasyCDDAExtractor 16.0.6.1
#
DISCID=9007e30c
DTITLE=Καφάσης Κώστας - Γέλα κυρία μου-Κ. Καφάσης
DYEAR=1995
DGENRE=Λαϊκή
TTITLE0=Γέλα κυρία μου [Κ. Ψυχογιού]
TTITLE1=Ψυχή μου, καρδιά μου [Κ. Ψυχογιού]
TTITLE2=Κάθε μεσονύχτι Κυριακής [Κ. Ψυχογιού]
TTITLE3=Έπαθα την πλάκα μου [Κ. Ψυχογιού]
TTITLE4=Πίνω, πίνω [Κ. Ψυχογιού]
TTITLE5=Το βασανάκι [Κ. Ψυχογιού]
TTITLE6=Περίπτωσή μου [Κ. Ψυχογιού]
TTITLE7=Η ώρα της φωτιάς [Κ. Ψυχογιού]
TTITLE8=Τι να με κάνεις, να με δεις [Κ. Ψυχογιού]
TTITLE9=Μονά, ζυγά δικά σου [Κ. Ψυχογιού]
TTITLE10=Δεν μπορεί, είναι αδύνατον [Κ. Ψυχογιού]
TTITLE11=Ρίχνω ζάρια [Κ. Ψυχογιού]
EXTD=
EXTT0=
EXTT1=
EXTT2=
EXTT3=
EXTT4=
EXTT5=
EXTT6=
EXTT7=
EXTT8=
EXTT9=
EXTT10=
EXTT11=
PLAYORDER=
